<svg xmlns="http://www.w3.org/2000/svg" width="54" height="54" viewBox="0 0 54 54">
  <g id="Icon" transform="translate(-39 -693)">
    <rect id="Rectangle_120" data-name="Rectangle 120" width="54" height="54" rx="16" transform="translate(39 693)" fill="#ecedff"/>
    <path id="star" d="M25.16,10.506a2.038,2.038,0,0,0-1.618-1.387l-5.828-.947-2.7-5.25a2.047,2.047,0,0,0-3.639,0l-2.7,5.25-5.828.947a2.047,2.047,0,0,0-1.124,3.46l4.158,4.192-.9,5.835a2.045,2.045,0,0,0,2.944,2.139l5.272-2.66,5.272,2.66a2.046,2.046,0,0,0,2.944-2.139l-.9-5.835,4.158-4.192a2.038,2.038,0,0,0,.493-2.073Zm-1.635.94-4.73,4.768,1.024,6.638a.436.436,0,0,1-.629.457l-6-3.026-6,3.026a.436.436,0,0,1-.629-.457l1.024-6.638-4.73-4.768a.438.438,0,0,1,.24-.739L9.731,9.629,12.8,3.657a.437.437,0,0,1,.777,0l3.073,5.972,6.629,1.078a.438.438,0,0,1,.24.739Z" transform="translate(52.68 706.866)" fill="#303af7"/>
  </g>
</svg>
