<svg xmlns="http://www.w3.org/2000/svg" width="19.072" height="15" viewBox="0 0 19.072 15">
  <g id="Hamburger" transform="translate(313.81 -301.713)">
    <g id="Group_324" data-name="Group 324" transform="translate(-313.81 301.713)">
      <path id="Path_185" data-name="Path 185" d="M-306.169,432.7c-1.919,0-3.838,0-5.757,0a1.845,1.845,0,0,1-1.694-.87,1.192,1.192,0,0,1,.238-1.556,2.184,2.184,0,0,1,1.647-.569q5.155.012,10.31,0c.342,0,.685-.005,1.026,0a1.714,1.714,0,0,1,1.851,1.5,1.706,1.706,0,0,1-1.864,1.486C-302.33,432.714-304.249,432.7-306.169,432.7Z" transform="translate(313.81 -417.707)" fill="#172331"/>
      <path id="Path_183" data-name="Path 183" d="M-304.279,368.727c-2.546,0-5.093,0-7.639,0a1.844,1.844,0,0,1-1.671-.845,1.191,1.191,0,0,1,.2-1.562,1.91,1.91,0,0,1,1.367-.582q.156-.006.313-.006,7.461,0,14.921,0c1.124,0,1.853.46,2.035,1.266.192.849-.62,1.67-1.708,1.724-.178.009-.357.008-.536.008h-7.282Z" transform="translate(313.796 -359.729)" fill="#172331"/>
      <path id="Path_184" data-name="Path 184" d="M-306.136,304.71c-1.919,0-3.838.01-5.757,0a1.746,1.746,0,0,1-1.855-1.348,1.555,1.555,0,0,1,1.362-1.585,2.356,2.356,0,0,1,.526-.056q5.735,0,11.47,0a1.781,1.781,0,0,1,1.88,1.33,1.564,1.564,0,0,1-1.385,1.608,3.676,3.676,0,0,1-.75.054q-2.745.006-5.49,0Z" transform="translate(313.768 -301.713)" fill="#172331"/>
    </g>
  </g>
</svg>
